<svg width="24" height="24" viewBox="0 0 24 24" fill="none" xmlns="http://www.w3.org/2000/svg">
<path d="M3 3L3.26266 3.088C4.57098 3.528 5.22514 3.748 5.5988 4.272C5.97346 4.796 5.97346 5.492 5.97346 6.883V9.5C5.97346 12.328 5.97346 13.743 6.84468 14.621C7.71492 15.5 9.1174 15.5 11.9204 15.5H19.8496" stroke="#121212" stroke-width="1.2" stroke-linecap="round"/>
<path opacity="0.5" d="M8.45157 18C8.84588 18 9.22403 18.158 9.50285 18.4393C9.78167 18.7206 9.9383 19.1022 9.9383 19.5C9.9383 19.8978 9.78167 20.2794 9.50285 20.5607C9.22403 20.842 8.84588 21 8.45157 21C8.05727 21 7.67911 20.842 7.4003 20.5607C7.12148 20.2794 6.96484 19.8978 6.96484 19.5C6.96484 19.1022 7.12148 18.7206 7.4003 18.4393C7.67911 18.158 8.05727 18 8.45157 18ZM17.372 18C17.7663 18 18.1444 18.158 18.4232 18.4393C18.702 18.7206 18.8587 19.1022 18.8587 19.5C18.8587 19.8978 18.702 20.2794 18.4232 20.5607C18.1444 20.842 17.7663 21 17.372 21C16.9776 21 16.5995 20.842 16.3207 20.5607C16.0419 20.2794 15.8852 19.8978 15.8852 19.5C15.8852 19.1022 16.0419 18.7206 16.3207 18.4393C16.5995 18.158 16.9776 18 17.372 18Z" stroke="#121212" stroke-width="1.2"/>
<path d="M5.97363 6H17.3223C19.3592 6 20.3781 6 20.8181 6.674C21.2592 7.349 20.8578 8.293 20.0549 10.182L19.6307 11.182C19.2561 12.064 19.0687 12.504 18.6971 12.752C18.3244 13 17.8486 13 16.8981 13H5.97363" stroke="#121212" stroke-width="1.2"/>
</svg>
