<svg width="40" height="40" viewBox="0 0 40 40" fill="none" xmlns="http://www.w3.org/2000/svg">
<path d="M5 5L5.43776 5.14667C7.6183 5.88 8.70856 6.24667 9.33134 7.12C9.95577 7.99333 9.95577 9.15333 9.95577 11.4717V15.8333C9.95577 20.5467 9.95577 22.905 11.4078 24.3683C12.8582 25.8333 15.1957 25.8333 19.8673 25.8333H33.0827" stroke="#121212" stroke-width="2" stroke-linecap="round"/>
<path opacity="0.5" d="M14.0859 30C14.7431 30 15.3734 30.2634 15.838 30.7322C16.3027 31.2011 16.5638 31.837 16.5638 32.5C16.5638 33.163 16.3027 33.7989 15.838 34.2678C15.3734 34.7366 14.7431 35 14.0859 35C13.4287 35 12.7985 34.7366 12.3338 34.2678C11.8691 33.7989 11.608 33.163 11.608 32.5C11.608 31.837 11.8691 31.2011 12.3338 30.7322C12.7985 30.2634 13.4287 30 14.0859 30ZM28.9532 30C29.6104 30 30.2406 30.2634 30.7053 30.7322C31.17 31.2011 31.4311 31.837 31.4311 32.5C31.4311 33.163 31.17 33.7989 30.7053 34.2678C30.2406 34.7366 29.6104 35 28.9532 35C28.296 35 27.6658 34.7366 27.2011 34.2678C26.7364 33.7989 26.4753 33.163 26.4753 32.5C26.4753 31.837 26.7364 31.2011 27.2011 30.7322C27.6658 30.2634 28.296 30 28.9532 30Z" stroke="#121212" stroke-width="2"/>
<path d="M9.95605 10H28.8706C32.2653 10 33.9634 10 34.6969 11.1233C35.432 12.2483 34.763 13.8217 33.4249 16.97L32.7179 18.6367C32.0935 20.1067 31.7812 20.84 31.1618 21.2533C30.5407 21.6667 29.7477 21.6667 28.1635 21.6667H9.95605" fill="#121212"/>
<path d="M9.95605 10H28.8706C32.2653 10 33.9634 10 34.6969 11.1233C35.432 12.2483 34.763 13.8217 33.4249 16.97L32.7179 18.6367C32.0935 20.1067 31.7812 20.84 31.1618 21.2533C30.5407 21.6667 29.7477 21.6667 28.1635 21.6667H9.95605" stroke="#121212" stroke-width="2"/>
</svg>
