<svg width="24" height="24" viewBox="0 0 24 24" fill="none" xmlns="http://www.w3.org/2000/svg">
<path d="M3.02621 5.24752C3.05184 5.15254 3.09544 5.06369 3.15451 4.98604C3.21357 4.9084 3.28695 4.84348 3.37044 4.795C3.45394 4.74652 3.54591 4.71543 3.6411 4.70351C3.73629 4.69158 3.83284 4.69906 3.92522 4.72552L5.58215 5.19752C6.02129 5.32009 6.42203 5.55752 6.74532 5.88664C7.06861 6.21577 7.30343 6.62536 7.42687 7.07552L9.5197 14.8615L9.67342 15.4075C10.2893 15.6445 10.8186 16.0875 11.1543 16.6755L11.4559 16.5795L20.086 14.2745C20.1787 14.2497 20.2753 14.2439 20.3703 14.2575C20.4652 14.271 20.5566 14.3036 20.6393 14.3535C20.722 14.4034 20.7943 14.4695 20.8521 14.5481C20.9099 14.6267 20.9521 14.7162 20.9762 14.8115C21.0004 14.9069 21.006 15.0061 20.9928 15.1037C20.9796 15.2013 20.9479 15.2953 20.8994 15.3802C20.8508 15.4652 20.7865 15.5395 20.7101 15.5989C20.6336 15.6583 20.5465 15.7017 20.4537 15.7265L11.8548 18.0225L11.5357 18.1245C11.5288 19.3945 10.6756 20.5555 9.38543 20.9005C7.83746 21.3145 6.24668 20.3985 5.8322 18.8565C5.41773 17.3135 6.33619 15.7275 7.88319 15.3145C7.95942 15.2943 8.03633 15.277 8.11378 15.2625L6.01998 7.47452C5.96362 7.27443 5.85783 7.09274 5.71291 6.94712C5.56799 6.8015 5.38887 6.69691 5.19297 6.64352L3.53506 6.17052C3.44267 6.14427 3.35622 6.09957 3.28065 6.03898C3.20507 5.97838 3.14185 5.90308 3.09459 5.81736C3.04734 5.73165 3.01698 5.63721 3.00524 5.53943C2.99351 5.44166 3.00063 5.34246 3.02621 5.24752Z" fill="#EC5E31"/>
<path opacity="0.5" d="M10.1159 8.73049L10.617 10.5935C11.0889 12.3485 11.3243 13.2265 12.0181 13.6255C12.7118 14.0255 13.5923 13.7895 15.3533 13.3195L17.2214 12.8195C18.9825 12.3495 19.863 12.1145 20.2638 11.4235C20.6647 10.7315 20.4292 9.85349 19.9564 8.09849L19.4563 6.23649C18.9844 4.48049 18.748 3.60249 18.0552 3.20349C17.3605 2.80349 16.48 3.03949 14.719 3.51049L12.8509 4.00849C11.0899 4.47849 10.2093 4.71449 9.80945 5.40649C9.4086 6.09749 9.64405 6.97549 10.1159 8.73049Z" fill="#EC5E31"/>
</svg>
