<svg width="16" height="16" viewBox="0 0 16 16" fill="none" xmlns="http://www.w3.org/2000/svg">
<path opacity="0.5" d="M2.765 9.92258C2.255 9.27858 2 8.956 2 7.99992C2 7.04325 2.255 6.72184 2.765 6.07725C3.7832 4.79159 5.4908 3.33325 8 3.33325C10.5092 3.33325 12.2168 4.79159 13.235 6.07725C13.745 6.72242 14 7.04384 14 7.99992C14 8.95659 13.745 9.278 13.235 9.92258C12.2168 11.2083 10.5092 12.6666 8 12.6666C5.4908 12.6666 3.7832 11.2083 2.765 9.92258Z" stroke="#EFEBF1"/>
<path d="M9.79986 8C9.79986 8.46413 9.61022 8.90925 9.27265 9.23744C8.93509 9.56563 8.47725 9.75 7.99986 9.75C7.52247 9.75 7.06463 9.56563 6.72707 9.23744C6.3895 8.90925 6.19986 8.46413 6.19986 8C6.19986 7.53587 6.3895 7.09075 6.72707 6.76256C7.06463 6.43437 7.52247 6.25 7.99986 6.25C8.47725 6.25 8.93509 6.43437 9.27265 6.76256C9.61022 7.09075 9.79986 7.53587 9.79986 8Z" fill="#EFEBF1" stroke="#EFEBF1"/>
</svg>
