<svg width="40" height="40" viewBox="0 0 40 40" fill="none" xmlns="http://www.w3.org/2000/svg">
<path d="M5 20.306C5 16.8725 5 15.1565 5.78 13.7345C6.557 12.311 7.9805 11.429 10.826 9.662L13.826 7.8005C16.8335 5.933 18.338 5 20 5C21.662 5 23.165 5.933 26.174 7.8005L29.174 9.662C32.0195 11.429 33.443 12.311 34.2215 13.7345C35 15.1565 35 16.8725 35 20.3045V22.5875C35 28.4375 35 31.364 33.242 33.182C31.4855 35 28.6565 35 23 35H17C11.3435 35 8.5145 35 6.758 33.182C5 31.364 5 28.439 5 22.5875V20.306Z" fill="#121212" stroke="#121212" stroke-width="2"/>
<path d="M18.875 29C18.875 29.2984 18.9935 29.5845 19.2045 29.7955C19.4155 30.0065 19.7016 30.125 20 30.125C20.2984 30.125 20.5845 30.0065 20.7955 29.7955C21.0065 29.5845 21.125 29.2984 21.125 29V24.5C21.125 24.2016 21.0065 23.9155 20.7955 23.7045C20.5845 23.4935 20.2984 23.375 20 23.375C19.7016 23.375 19.4155 23.4935 19.2045 23.7045C18.9935 23.9155 18.875 24.2016 18.875 24.5V29Z" fill="#EFEBF1"/>
<path d="M18.875 29C18.875 29.2984 18.9935 29.5845 19.2045 29.7955C19.4155 30.0065 19.7016 30.125 20 30.125C20.2984 30.125 20.5845 30.0065 20.7955 29.7955C21.0065 29.5845 21.125 29.2984 21.125 29V24.5C21.125 24.2016 21.0065 23.9155 20.7955 23.7045C20.5845 23.4935 20.2984 23.375 20 23.375C19.7016 23.375 19.4155 23.4935 19.2045 23.7045C18.9935 23.9155 18.875 24.2016 18.875 24.5V29Z" fill="#121212" fill-opacity="0.5"/>
<path d="M18.875 29C18.875 29.2984 18.9935 29.5845 19.2045 29.7955C19.4155 30.0065 19.7016 30.125 20 30.125C20.2984 30.125 20.5845 30.0065 20.7955 29.7955C21.0065 29.5845 21.125 29.2984 21.125 29V24.5C21.125 24.2016 21.0065 23.9155 20.7955 23.7045C20.5845 23.4935 20.2984 23.375 20 23.375C19.7016 23.375 19.4155 23.4935 19.2045 23.7045C18.9935 23.9155 18.875 24.2016 18.875 24.5V29Z" stroke="#EFEBF1" stroke-width="2"/>
<path d="M18.875 29C18.875 29.2984 18.9935 29.5845 19.2045 29.7955C19.4155 30.0065 19.7016 30.125 20 30.125C20.2984 30.125 20.5845 30.0065 20.7955 29.7955C21.0065 29.5845 21.125 29.2984 21.125 29V24.5C21.125 24.2016 21.0065 23.9155 20.7955 23.7045C20.5845 23.4935 20.2984 23.375 20 23.375C19.7016 23.375 19.4155 23.4935 19.2045 23.7045C18.9935 23.9155 18.875 24.2016 18.875 24.5V29Z" stroke="#121212" stroke-opacity="0.5" stroke-width="2"/>
</svg>
