<svg width="24" height="24" viewBox="0 0 24 24" fill="none" xmlns="http://www.w3.org/2000/svg">
<path d="M3 12.1836C3 10.1235 3 9.0939 3.468 8.2407C3.9342 7.3866 4.7883 6.8574 6.4956 5.7972L8.2956 4.6803C10.1001 3.5598 11.0028 3 12 3C12.9972 3 13.899 3.5598 15.7044 4.6803L17.5044 5.7972C19.2117 6.8574 20.0658 7.3866 20.5329 8.2407C21 9.0939 21 10.1235 21 12.1827V13.5525C21 17.0625 21 18.8184 19.9452 19.9092C18.8913 21 17.1939 21 13.8 21H10.2C6.8061 21 5.1087 21 4.0548 19.9092C3 18.8184 3 17.0634 3 13.5525V12.1836Z" stroke="#121212" stroke-width="1.2"/>
<path d="M11.325 17.3999C11.325 17.5789 11.3961 17.7506 11.5227 17.8772C11.6492 18.0038 11.8209 18.0749 12 18.0749C12.179 18.0749 12.3507 18.0038 12.4772 17.8772C12.6038 17.7506 12.675 17.5789 12.675 17.3999V14.6999C12.675 14.5209 12.6038 14.3492 12.4772 14.2226C12.3507 14.096 12.179 14.0249 12 14.0249C11.8209 14.0249 11.6492 14.096 11.5227 14.2226C11.3961 14.3492 11.325 14.5209 11.325 14.6999V17.3999Z" fill="#EFEBF1"/>
<path d="M11.325 17.3999C11.325 17.5789 11.3961 17.7506 11.5227 17.8772C11.6492 18.0038 11.8209 18.0749 12 18.0749C12.179 18.0749 12.3507 18.0038 12.4772 17.8772C12.6038 17.7506 12.675 17.5789 12.675 17.3999V14.6999C12.675 14.5209 12.6038 14.3492 12.4772 14.2226C12.3507 14.096 12.179 14.0249 12 14.0249C11.8209 14.0249 11.6492 14.096 11.5227 14.2226C11.3961 14.3492 11.325 14.5209 11.325 14.6999V17.3999Z" fill="#121212" fill-opacity="0.5"/>
<path d="M11.325 17.3999C11.325 17.5789 11.3961 17.7506 11.5227 17.8772C11.6492 18.0038 11.8209 18.0749 12 18.0749C12.179 18.0749 12.3507 18.0038 12.4772 17.8772C12.6038 17.7506 12.675 17.5789 12.675 17.3999V14.6999C12.675 14.5209 12.6038 14.3492 12.4772 14.2226C12.3507 14.096 12.179 14.0249 12 14.0249C11.8209 14.0249 11.6492 14.096 11.5227 14.2226C11.3961 14.3492 11.325 14.5209 11.325 14.6999V17.3999Z" stroke="#EFEBF1" stroke-width="1.2"/>
<path d="M11.325 17.3999C11.325 17.5789 11.3961 17.7506 11.5227 17.8772C11.6492 18.0038 11.8209 18.0749 12 18.0749C12.179 18.0749 12.3507 18.0038 12.4772 17.8772C12.6038 17.7506 12.675 17.5789 12.675 17.3999V14.6999C12.675 14.5209 12.6038 14.3492 12.4772 14.2226C12.3507 14.096 12.179 14.0249 12 14.0249C11.8209 14.0249 11.6492 14.096 11.5227 14.2226C11.3961 14.3492 11.325 14.5209 11.325 14.6999V17.3999Z" stroke="#121212" stroke-opacity="0.5" stroke-width="1.2"/>
</svg>
