<svg width="24" height="24" viewBox="0 0 24 24" fill="none" xmlns="http://www.w3.org/2000/svg">
<path d="M20.061 13.7933L20.061 13.7935L19.6812 16.396C19.5213 17.4888 19.4089 18.2475 19.2434 18.8172C19.0841 19.3656 18.8944 19.6683 18.6208 19.8867C18.3409 20.1101 17.9679 20.2492 17.3266 20.3234C16.6727 20.3991 15.8203 20.4 14.6148 20.4H9.3858C8.18074 20.4 7.3283 20.3991 6.67429 20.3234C6.0328 20.2492 5.65967 20.1101 5.3798 19.8867C5.10624 19.6683 4.91645 19.3656 4.75718 18.8172C4.59173 18.2475 4.47933 17.4888 4.31937 16.396L3.93961 13.7935L3.93955 13.7931C3.73552 12.4014 3.59442 11.4266 3.60017 10.6868C3.60572 9.97089 3.74973 9.5823 4.02882 9.29172C4.31746 8.99122 4.74961 8.79762 5.55813 8.69396C6.37703 8.58896 7.47028 8.58779 9.0051 8.58779H14.9955C16.5303 8.58779 17.6236 8.58896 18.4425 8.69396C19.251 8.79762 19.6831 8.99122 19.9718 9.29172C20.2504 9.58224 20.3942 9.97088 20.3998 10.6868C20.4055 11.4267 20.2646 12.4015 20.061 13.7933ZM9.15 16.125C8.46533 16.125 7.8003 16.6384 7.8003 17.4C7.8003 18.1616 8.46533 18.675 9.15 18.675H14.8506C15.5353 18.675 16.2003 18.1616 16.2003 17.4C16.2003 16.6384 15.5353 16.125 14.8506 16.125H9.15Z" stroke="#121212" stroke-width="1.2"/>
<path opacity="0.4" d="M8.85898 3H15.141C15.3507 3 15.51 3 15.6513 3.0135C16.6485 3.1116 17.4639 3.711 17.8104 4.5183H6.18958C6.53608 3.711 7.35237 3.1116 8.34958 3.0135C8.48907 3 8.65018 3 8.85898 3Z" fill="#121212"/>
<path opacity="0.7" d="M6.879 5.45074C5.628 5.45074 4.602 6.20674 4.26 7.20844C4.25251 7.22934 4.24531 7.25034 4.2384 7.27144C4.60117 7.1654 4.97201 7.08924 5.3472 7.04374C6.3192 6.91954 7.5486 6.91954 8.976 6.91954H15.1788C16.6062 6.91954 17.8356 6.91954 18.8076 7.04374C19.1856 7.09234 19.5582 7.16344 19.9164 7.27144C19.9098 7.25036 19.9029 7.22935 19.8957 7.20844C19.5537 6.20584 18.5277 5.45074 17.2758 5.45074H6.879Z" fill="#121212"/>
</svg>
