<svg width="40" height="40" viewBox="0 0 40 40" fill="none" xmlns="http://www.w3.org/2000/svg">
<path d="M33.435 22.9888L33.435 22.9891L32.802 27.3267C32.5354 29.1479 32.3481 30.4126 32.0724 31.362C31.8069 32.2761 31.4906 32.7805 31.0347 33.1444C30.5681 33.5168 29.9466 33.7487 28.8777 33.8724C27.7879 33.9984 26.3672 34 24.358 34H15.643C13.6346 34 12.2138 33.9984 11.1238 33.8724C10.0547 33.7487 9.43279 33.5168 8.96634 33.1444C8.51041 32.7805 8.19408 32.2761 7.92863 31.362C7.65291 30.4126 7.46558 29.1481 7.19901 27.3271C7.19899 27.327 7.19897 27.3268 7.19895 27.3267L6.56601 22.9891L6.56592 22.9884C6.22586 20.6689 5.9907 19.0444 6.00028 17.8114C6.00954 16.6181 6.24955 15.9705 6.71471 15.4862C7.19576 14.9854 7.91602 14.6627 9.26354 14.4899C10.6284 14.3149 12.4505 14.313 15.0085 14.313H24.9925C27.5505 14.313 29.3726 14.3149 30.7374 14.4899C32.085 14.6627 32.8052 14.9854 33.2863 15.4862C33.7507 15.9704 33.9903 16.6181 33.9996 17.8114C34.0092 19.0445 33.7743 20.6692 33.435 22.9888ZM15.25 26.875C14.1089 26.875 13.0005 27.7307 13.0005 29C13.0005 30.2693 14.1089 31.125 15.25 31.125H24.751C25.8921 31.125 27.0005 30.2693 27.0005 29C27.0005 27.7307 25.8921 26.875 24.751 26.875H15.25Z" fill="#121212" stroke="#121212" stroke-width="2"/>
<path opacity="0.4" d="M14.7649 5H25.2349C25.5844 5 25.8499 5 26.0854 5.0225C27.7474 5.186 29.1064 6.185 29.6839 7.5305H10.3159C10.8934 6.185 12.2539 5.186 13.9159 5.0225C14.1484 5 14.4169 5 14.7649 5Z" fill="#121212"/>
<path opacity="0.7" d="M11.465 9.08447C9.37996 9.08447 7.66997 10.3445 7.09997 12.014C7.08747 12.0488 7.07547 12.0838 7.06396 12.119C7.66857 11.9422 8.28664 11.8153 8.91196 11.7395C10.532 11.5325 12.581 11.5325 14.96 11.5325H25.298C27.677 11.5325 29.726 11.5325 31.346 11.7395C31.976 11.8205 32.597 11.939 33.194 12.119C33.1829 12.0838 33.1714 12.0488 33.1595 12.014C32.5895 10.343 30.8795 9.08447 28.793 9.08447H11.465Z" fill="#121212"/>
</svg>
