<svg width="40" height="40" viewBox="0 0 40 40" fill="none" xmlns="http://www.w3.org/2000/svg">
<path opacity="0.5" d="M35 20C35 28.2845 28.2845 35 20 35C11.7155 35 5 28.2845 5 20C5 11.7155 11.7155 5 20 5C28.2845 5 35 11.7155 35 20Z" stroke="#121212" stroke-width="2"/>
<path d="M26.6443 29.6918L26.644 29.692C24.6898 31.0357 22.3732 31.7533 20.0017 31.7495L19.9985 31.7495C17.6269 31.7533 15.3103 31.0357 13.3562 29.692L13.3559 29.6918C12.7978 29.3084 12.6616 28.6629 12.9017 28.2242L12.9025 28.2228C13.7367 26.6933 15.5228 25.4995 20.0001 25.4995C24.4761 25.4995 26.263 26.6926 27.0989 28.2223C27.3386 28.663 27.2011 29.3092 26.6443 29.6918ZM22.4749 17.9744C21.8186 18.6308 20.9283 18.9995 20.0001 18.9995C19.0718 18.9995 18.1816 18.6308 17.5252 17.9744C16.8688 17.318 16.5001 16.4278 16.5001 15.4995C16.5001 14.5713 16.8688 13.681 17.5252 13.0246C18.1816 12.3683 19.0718 11.9995 20.0001 11.9995C20.9283 11.9995 21.8186 12.3683 22.4749 13.0246C23.1313 13.681 23.5001 14.5713 23.5001 15.4995C23.5001 16.4278 23.1313 17.318 22.4749 17.9744Z" fill="#121212" stroke="#121212" stroke-width="2"/>
</svg>
