<svg width="24" height="24" viewBox="0 0 24 24" fill="none" xmlns="http://www.w3.org/2000/svg">
<path opacity="0.5" d="M21 12C21 16.9707 16.9707 21 12 21C7.0293 21 3 16.9707 3 12C3 7.0293 7.0293 3 12 3C16.9707 3 21 7.0293 21 12Z" stroke="#121212" stroke-width="1.2"/>
<path d="M15.9865 17.815L15.9864 17.8151C14.8139 18.6213 13.4239 19.0519 12.001 19.0496L11.9991 19.0496C10.5761 19.0519 9.18616 18.6213 8.01367 17.8151L8.01349 17.815C7.67865 17.5849 7.59691 17.1977 7.74102 16.9344L7.74147 16.9336C8.24198 16.0159 9.31368 15.2996 12 15.2996C14.6858 15.2996 15.7579 16.0156 16.2594 16.9335C16.4031 17.1979 16.3205 17.5855 15.9865 17.815ZM13.4849 10.7845C13.0911 11.1784 12.557 11.3996 12 11.3996C11.4431 11.3996 10.9089 11.1784 10.5151 10.7845C10.1213 10.3907 9.90002 9.85656 9.90002 9.29961C9.90002 8.74265 10.1213 8.20851 10.5151 7.81469C10.9089 7.42086 11.4431 7.19961 12 7.19961C12.557 7.19961 13.0911 7.42086 13.4849 7.81469C13.8788 8.20851 14.1 8.74265 14.1 9.29961C14.1 9.85656 13.8788 10.3907 13.4849 10.7845Z" stroke="#121212" stroke-width="1.2"/>
</svg>
