<svg width="40" height="40" viewBox="0 0 40 40" fill="none" xmlns="http://www.w3.org/2000/svg">
<path fill-rule="evenodd" clip-rule="evenodd" d="M21.6969 13.9997C21.6969 12.3437 23.1087 11 24.848 11C25.2609 10.9991 25.67 11.0759 26.0519 11.2261C26.4338 11.3764 26.781 11.5971 27.0737 11.8756C27.3664 12.1542 27.5988 12.4851 27.7578 12.8496C27.9167 13.214 27.999 13.6048 28 13.9997C28 15.6566 26.5882 17.0003 24.848 17.0003C24.4307 17.0008 24.0174 16.922 23.6322 16.7684C23.247 16.6148 22.8976 16.3895 22.6042 16.1057L18.2419 18.9461C18.3634 19.5248 18.3038 20.1249 18.0706 20.6714L22.8536 23.6774C23.417 23.238 24.122 22.9986 24.8489 22.9997C25.2619 22.9989 25.6709 23.0758 26.0528 23.2262C26.4346 23.3765 26.7817 23.5973 27.0744 23.8759C27.367 24.1546 27.5993 24.4856 27.7581 24.8501C27.9169 25.2146 27.9991 25.6054 28 26.0003C28 27.6563 26.5882 29 24.848 29C24.0142 29.0017 23.2138 28.6866 22.6229 28.1241C22.032 27.5615 21.6989 26.7976 21.6969 26.0003C21.6962 25.5797 21.7889 25.1637 21.9689 24.7799L17.2235 21.8C16.6489 22.2778 15.9126 22.5403 15.1511 22.5389C14.7381 22.5398 14.329 22.463 13.9471 22.3127C13.5652 22.1624 13.218 21.9416 12.9254 21.6629C12.6327 21.3843 12.4004 21.0532 12.2416 20.6887C12.0828 20.3241 12.0007 19.9332 12 19.5383C12.0009 19.1435 12.0831 18.7527 12.2419 18.3882C12.4007 18.0238 12.6331 17.6928 12.9257 17.4143C13.2183 17.1357 13.5655 16.915 13.9473 16.7648C14.3291 16.6145 14.7382 16.5377 15.1511 16.5386C16.1525 16.5386 17.0428 16.9823 17.6198 17.6735L21.8485 14.9204C21.7479 14.623 21.6967 14.3123 21.6969 13.9997Z" fill="#4074D8"/>
</svg>
