<svg width="16" height="16" viewBox="0 0 16 16" fill="none" xmlns="http://www.w3.org/2000/svg">
<path d="M6.29195 4.04481C7.05216 2.6816 7.43196 2 8.00016 2C8.56836 2 8.94816 2.6816 9.70836 4.04481L9.90516 4.39761C10.1212 4.78521 10.2292 4.97901 10.3972 5.10681C10.5652 5.23461 10.7752 5.28201 11.1952 5.37681L11.5768 5.46321C13.0528 5.79741 13.7902 5.96421 13.966 6.52881C14.1412 7.09282 13.6384 7.68142 12.6322 8.85802L12.3718 9.16222C12.0862 9.49642 11.9428 9.66382 11.8786 9.87022C11.8144 10.0772 11.836 10.3004 11.8792 10.7462L11.9188 11.1524C12.0706 12.7226 12.1468 13.5074 11.6872 13.856C11.2276 14.2052 10.5364 13.8866 9.15516 13.2506L8.79696 13.0862C8.40456 12.905 8.20836 12.815 8.00016 12.815C7.79196 12.815 7.59576 12.905 7.20276 13.0862L6.84576 13.2506C5.46395 13.8866 4.77275 14.2046 4.31375 13.8566C3.85355 13.5074 3.92975 12.7226 4.08155 11.1524L4.12115 10.7468C4.16435 10.3004 4.18595 10.0772 4.12115 9.87082C4.05755 9.66382 3.91415 9.49642 3.62855 9.16282L3.36815 8.85802C2.36194 7.68202 1.85914 7.09342 2.03434 6.52881C2.21014 5.96421 2.94814 5.79681 4.42415 5.46321L4.80575 5.37681C5.22515 5.28201 5.43455 5.23461 5.60315 5.10681C5.77115 4.97901 5.87915 4.78521 6.09515 4.39761L6.29195 4.04481Z" fill="#EC9631"/>
</svg>
